<svg xmlns="http://www.w3.org/2000/svg" viewBox="0 0 1280 720" width="1280" height="720" role="img" aria-label="Digital Services Act, confronto europeo sui poteri delle autorità bulgare"><defs><linearGradient id="bg"><stop stop-color="#050e22"/><stop offset=".65" stop-color="#174076"/><stop offset="1" stop-color="#190e22"/></linearGradient><linearGradient id="line"><stop stop-color="#008bff"/><stop offset="1" stop-color="#ef2148"/></linearGradient></defs><rect width="1280" height="720" fill="url(#bg)"/><g opacity=".15" stroke="#81beef"><path d="M0 80H1280M0 160H1280M0 240H1280M0 320H1280M0 400H1280M0 480H1280M0 560H1280M0 640H1280M100 0V720M200 0V720M300 0V720M400 0V720M500 0V720M600 0V720M700 0V720M800 0V720M900 0V720M1000 0V720M1100 0V720M1200 0V720"/></g><rect width="1280" height="8" fill="#e61d42"/><text x="56" y="90" font-family="Arial,sans-serif" font-size="44" font-weight="900" fill="#fff">Zazoom<tspan fill="#ff284f">Tek</tspan><tspan font-size="27">.it</tspan></text><text x="56" y="171" font-family="Arial,sans-serif" font-size="26" font-weight="bold" letter-spacing="5" fill="#54d1ff">TECH IMPACT</text><text x="52" y="340" font-family="Arial,sans-serif" font-size="110" font-weight="900" fill="#fff">UE <tspan fill="#ff2e57">VS</tspan></text><text x="52" y="462" font-family="Arial,sans-serif" font-size="104" font-weight="900" fill="#fff">BULGARIA</text><rect x="53" y="501" width="620" height="9" fill="url(#line)"/><text x="53" y="574" font-family="Arial,sans-serif" font-size="32" font-weight="bold" fill="#e7f5ff">DSA e controlli sulle piattaforme</text><g transform="translate(1008,245)"><rect x="-150" y="-110" width="280" height="230" rx="18" fill="#15395c" stroke="#73e4ff" stroke-width="8"/><text x="-10" y="-10" text-anchor="middle" font-size="70" font-weight="900" font-family="Arial,sans-serif" fill="#fff">DSA</text><rect x="-40" y="28" width="70" height="60" rx="12" fill="none" stroke="#ff3660" stroke-width="9"/><path d="M-25 30v-17a20 20 0 0140 0v17" fill="none" stroke="#ff3660" stroke-width="9"/></g><g transform="translate(960,600)"><rect x="0" width="215" height="28" fill="#fff"/><rect y="28" width="215" height="28" fill="#16964c"/><rect y="56" width="215" height="28" fill="#ec2342"/></g></svg>